# xmcd
#
# Track frame offsets: 
#        150
#        16262
#        31704
#        51066
#        67950
#        85221
#        103474
#        121203
#        138323
#        154951
#        174390
#
# Disc length: 2579 seconds
#
# Revision: 2
# Processed by: cddbd v1.5.2PL0 Copyright (c) Steve Scherf et al.
# Submitted via: ExactAudioCopy v1.0b3
#
DISCID=880a110b
DTITLE=Joe - The Good, The Bad, The Sexy
DYEAR=2011
DGENRE=Soul
TTITLE0=Losing
TTITLE1=Time of Your Life
TTITLE2=Almost There
TTITLE3=Circles
TTITLE4=Pull My Hair
TTITLE5=Dear Joe
TTITLE6=Slow Kisses
TTITLE7=Lose Control
TTITLE8=Tonight
TTITLE9=Impossible
TTITLE10=Drink Up
EXTD=
EXTT0=
EXTT1=
EXTT2=
EXTT3=
EXTT4=
EXTT5=
EXTT6=
EXTT7=
EXTT8=
EXTT9=
EXTT10=
PLAYORDER=
